<?xml version="1.0" encoding="utf-8"?>
<!-- Generator: Adobe Illustrator 26.0.1, SVG Export Plug-In . SVG Version: 6.00 Build 0)  -->
<svg version="1.1" id="Layer_1" xmlns="http://www.w3.org/2000/svg" xmlns:xlink="http://www.w3.org/1999/xlink" x="0px" y="0px"
	 viewBox="0 0 927.8 927.8" style="enable-background:new 0 0 927.8 927.8;" xml:space="preserve">
<style type="text/css">
	.st0{fill:#050708;}
	.st1{fill:#FECB35;}
	.st2{fill:#FFFFFF;}
</style>
<g>
	<rect x="-8.5" y="-8.5" class="st0" width="944.8" height="944.8"/>
	<g>
		<g>
			<g>
				<polygon class="st1" points="573.7,494.4 655.1,443.6 573.7,493.7 				"/>
				<path class="st1" d="M786.3,347.7L609.9,61.1c-3.7-6-11.7-8-17.8-4.2l-12.9,7.9l5.9,9.5c3.6,5.8,1.8,13.5-4.1,17.1l-39.6,24.4
					c-5.8,3.6-13.5,1.8-17.1-4.1l-5.8-9.5L181.3,309.6c-2.5,1.5-4.3,3.8-5.3,6.4c-1.4,3.6-1.2,7.8,1,11.4l3.9,6.4L274.1,483V296.5
					H362l62.1,132.7l61.8-132.7h87.8v197.2l81.4-50.1l53.3-32.8l-6.8-11.1c-3.6-5.8-1.8-13.5,4.1-17.1l39.6-24.4
					c5.8-3.6,13.5-1.8,17.1,4.1l6.8,11.1l12.9-7.9C788.1,361.8,790,353.8,786.3,347.7z M664.8,203.8l17.9,29.1
					c3.6,5.8,1.8,13.5-4.1,17.1L639,274.3c-5.8,3.6-13.5,1.8-17.1-4.1L604,241.2c-3.6-5.8-1.8-13.5,4.1-17.1l39.6-24.4
					C653.5,196.1,661.2,197.9,664.8,203.8z M559.3,144.8l39.6-24.4c5.8-3.6,13.5-1.8,17.1,4.1l17.9,29.1c3.6,5.8,1.8,13.5-4.1,17.1
					L590.2,195c-5.8,3.6-13.5,1.8-17.1-4.1l-17.9-29.1C551.7,156.1,553.5,148.4,559.3,144.8z M727.4,329.2l-39.6,24.4
					c-5.8,3.6-13.5,1.8-17.1-4.1l-17.9-29.1c-3.6-5.8-1.8-13.5,4.1-17.1l39.6-24.4c5.8-3.6,13.5-1.8,17.1,4.1l17.9,29.1
					C735,317.9,733.2,325.6,727.4,329.2z"/>
				<polygon class="st1" points="469.2,558 501.2,538.3 501.2,411.5 				"/>
				<path class="st1" d="M346.6,599.1L359,619c3.8,1.8,8.4,1.7,12.2-0.7l18.2-11.2l-42.8-195.6V599.1z"/>
			</g>
			<g>
				<path class="st2" d="M325.4,843.1h-1.9c-0.2-1.8-1.2-2.9-3.1-2.9c-1.5,0-2.8,0.7-2.8,2.2c0,1.6,0.9,2.2,3.1,2.8
					c3.2,0.7,4.8,2,4.8,4.5c0,2.5-2.2,4.2-5,4.2c-3.2,0-5.2-1.6-5.5-4.4h1.9c0.4,1.9,1.7,3,3.6,3c1.7,0,3-0.9,3-2.4
					c0-1.8-1-2.6-3.5-3.1c-2.6-0.6-4.3-1.6-4.3-4c0-2.5,2.2-4.1,4.8-4.1C323.5,838.8,325.1,840.6,325.4,843.1z"/>
				<path class="st2" d="M346.9,853.5h-1.8v-6.3h-8v6.3h-1.8V839h1.8v6.6h8V839h1.8V853.5z"/>
				<path class="st2" d="M370.1,846.3c0,4.4-2.4,7.5-6.8,7.5c-4.4,0-6.8-3.1-6.8-7.5c0-4.4,2.4-7.5,6.8-7.5
					C367.7,838.8,370.1,841.9,370.1,846.3z M368.1,846.3c0-3.8-1.8-6.1-4.8-6.1c-3,0-4.8,2.3-4.8,6.1c0,3.8,1.8,6.1,4.8,6.1
					C366.3,852.4,368.1,850.1,368.1,846.3z"/>
				<path class="st2" d="M393.7,853.5h-2.4l-3.3-12.5l-3.4,12.5h-2.4l-3.8-14.5h2.1l3,12.9l3.4-12.7h2.4l3.3,12.7l3.2-12.9h1.9
					L393.7,853.5z"/>
				<path class="st2" d="M428.7,849.3c0,2.6-1.8,3.9-3.7,4.2c-0.7,0.1-1.2,0.1-1.8,0.1h-4.7V839h4.3c0.7,0,1.2,0,1.9,0.1
					c2.3,0.3,3.6,1.5,3.6,3.5c0,1.7-1,2.7-2.5,3.2C427.6,846.3,428.7,847.3,428.7,849.3z M420.2,845.3h2.8c0.4,0,0.7,0,1.2-0.1
					c1.5-0.2,2-1.1,2-2.4c0-1.4-0.9-2.1-2.2-2.2c-0.4,0-0.8,0-1.2,0h-2.6V845.3z M426.7,849.5c0-1.8-1-2.4-2.4-2.6
					c-0.5-0.1-0.8-0.1-1.2-0.1h-3v5.3h3.1c0.3,0,0.7,0,1,0C425.7,851.9,426.7,851,426.7,849.5z"/>
				<path class="st2" d="M448.2,853.5h-9.6V839h9.4v1.5h-7.6v5h7v1.5h-7v5h7.8V853.5z"/>
				<path class="st2" d="M459.6,845.6h6.8v1.5h-6.8v6.5h-1.8V839h9.4v1.5h-7.6V845.6z"/>
				<path class="st2" d="M489.2,846.3c0,4.4-2.4,7.5-6.8,7.5c-4.4,0-6.8-3.1-6.8-7.5c0-4.4,2.4-7.5,6.8-7.5
					C486.8,838.8,489.2,841.9,489.2,846.3z M487.2,846.3c0-3.8-1.8-6.1-4.8-6.1c-3,0-4.8,2.3-4.8,6.1c0,3.8,1.8,6.1,4.8,6.1
					C485.4,852.4,487.2,850.1,487.2,846.3z"/>
				<path class="st2" d="M509.6,853.5h-2c-0.4-0.9-0.6-1.8-0.8-3.6c-0.2-1.5-0.7-2.5-2.2-2.6c-0.3,0-0.7,0-1,0h-2.7v6.2h-1.8V839
					h4.7c0.7,0,1.2,0,1.9,0.1c2.1,0.3,3.6,1.4,3.6,3.9c0,1.9-1.2,3-2.6,3.4c1.2,0.5,1.7,1.9,1.9,3.3
					C508.8,851.6,509,852.8,509.6,853.5z M503.7,845.8c0.7,0,1,0,1.4,0c1.3-0.1,2.3-1,2.3-2.6c0-1.6-0.8-2.4-2.1-2.6
					c-0.4-0.1-0.8-0.1-1.4-0.1h-2.9v5.3H503.7z"/>
				<path class="st2" d="M528.7,853.5H519V839h9.4v1.5h-7.6v5h7v1.5h-7v5h7.8V853.5z"/>
				<path class="st2" d="M555.4,840.5v13h-1.8v-13h-5.2V839h12.1v1.5H555.4z"/>
				<path class="st2" d="M581.2,853.5h-1.8v-6.3h-8v6.3h-1.8V839h1.8v6.6h8V839h1.8V853.5z"/>
				<path class="st2" d="M601.5,853.5h-9.6V839h9.4v1.5h-7.6v5h7v1.5h-7v5h7.8V853.5z"/>
				<path class="st2" d="M624.5,845.6h6.8v1.5h-6.8v6.5h-1.8V839h9.4v1.5h-7.6V845.6z"/>
				<path class="st2" d="M641.5,853.5V839h1.8v14.5H641.5z"/>
				<path class="st2" d="M664.5,853.5h-2c-0.4-0.9-0.6-1.8-0.8-3.6c-0.2-1.5-0.7-2.5-2.2-2.6c-0.3,0-0.7,0-1,0h-2.7v6.2H654V839h4.7
					c0.7,0,1.2,0,1.9,0.1c2.1,0.3,3.6,1.4,3.6,3.9c0,1.9-1.2,3-2.6,3.4c1.2,0.5,1.7,1.9,1.9,3.3
					C663.7,851.6,663.9,852.8,664.5,853.5z M658.6,845.8c0.7,0,1,0,1.4,0c1.3-0.1,2.3-1,2.3-2.6c0-1.6-0.8-2.4-2.1-2.6
					c-0.4-0.1-0.8-0.1-1.4-0.1h-2.9v5.3H658.6z"/>
				<path class="st2" d="M683.3,843.1h-1.9c-0.2-1.8-1.2-2.9-3.1-2.9c-1.5,0-2.8,0.7-2.8,2.2c0,1.6,0.9,2.2,3.1,2.8
					c3.2,0.7,4.8,2,4.8,4.5c0,2.5-2.2,4.2-5,4.2c-3.2,0-5.2-1.6-5.5-4.4h1.9c0.4,1.9,1.7,3,3.6,3c1.7,0,3-0.9,3-2.4
					c0-1.8-1-2.6-3.5-3.1c-2.6-0.6-4.3-1.6-4.3-4c0-2.5,2.2-4.1,4.8-4.1C681.5,838.8,683,840.6,683.3,843.1z"/>
				<path class="st2" d="M698.8,840.5v13H697v-13h-5.2V839H704v1.5H698.8z"/>
				<path class="st2" d="M733.8,843.1h-1.9c-0.2-1.8-1.2-2.9-3.1-2.9c-1.5,0-2.8,0.7-2.8,2.2c0,1.6,0.9,2.2,3.1,2.8
					c3.2,0.7,4.8,2,4.8,4.5c0,2.5-2.2,4.2-5,4.2c-3.2,0-5.2-1.6-5.5-4.4h1.9c0.4,1.9,1.7,3,3.6,3c1.7,0,3-0.9,3-2.4
					c0-1.8-1-2.6-3.5-3.1c-2.6-0.6-4.3-1.6-4.3-4c0-2.5,2.2-4.1,4.8-4.1C732,838.8,733.6,840.6,733.8,843.1z"/>
				<path class="st2" d="M755.3,853.5h-1.8v-6.3h-8v6.3h-1.8V839h1.8v6.6h8V839h1.8V853.5z"/>
				<path class="st2" d="M778.6,846.3c0,4.4-2.4,7.5-6.8,7.5s-6.8-3.1-6.8-7.5c0-4.4,2.4-7.5,6.8-7.5S778.6,841.9,778.6,846.3z
					 M776.6,846.3c0-3.8-1.8-6.1-4.8-6.1c-3,0-4.8,2.3-4.8,6.1c0,3.8,1.8,6.1,4.8,6.1C774.8,852.4,776.6,850.1,776.6,846.3z"/>
				<path class="st2" d="M802.1,853.5h-2.4l-3.3-12.5l-3.4,12.5h-2.4l-3.8-14.5h2.1l3,12.9l3.4-12.7h2.4l3.3,12.7l3.2-12.9h1.9
					L802.1,853.5z"/>
			</g>
			<g>
				<path class="st1" d="M285.3,807.6l-0.2-154.7c0-2.8-1.5-5.1-4.1-6.1c-3.8-1.5-7.2,0-8.6,3.5l-43.6,103.3L190.8,676
					c-1-2-2.7-3.2-4.7-3.2c-0.9,0-1.7,0.2-2.6,0.7c-1.9,0.9-2.7,2.2-3.1,3.2c-0.5,1.4-0.4,2.9,0.3,4.3l43,89.7l0.3,0.4
					c0.6,0.8,1.3,1.6,2.1,2.1l0.8,0.4c3.5,1.3,6.7-0.2,7.8-3.5l37.2-85.3l-0.2,122.8c0,1.8,0.6,3.4,1.8,4.7c1.3,1.4,3,2.2,4.9,2.2
					c1.9,0,3.5-0.7,4.9-2.1C284.6,811.2,285.3,809.5,285.3,807.6z"/>
				<path class="st1" d="M168.6,647.3c-3.2,0-5.4,2.3-5.4,5.6l-1.3,154.7c0,1.8,0.6,3.4,1.8,4.7c1.3,1.4,3,2.2,4.9,2.2
					c1.9,0,3.5-0.7,4.9-2.1c1.3-1.3,2.1-3,2.1-4.9l-1.3-154.7C174.3,649.6,171.9,647.3,168.6,647.3z"/>
				<path class="st1" d="M401.2,771.8c-0.1-0.5-0.3-1-0.5-1.5l-41.3-118.9c-0.3-1.6-1.4-2.9-3.1-3.6c-1.7-0.8-3.6-0.7-5.1,0.3
					c-1.1,0.8-1.9,1.8-2.3,2.9l-39.6,114.2l-0.1,0L281,846.3l-0.2,0.6v0.3c-0.5,1.7-0.4,3.3,0.2,4.7c0.5,1.2,1.7,2.8,4.3,3.7
					c0.8,0.3,1.6,0.5,2.4,0.5c1.1,0,2.3-0.3,3.3-0.9c1.7-0.9,2.8-2.2,3.5-3.9l24.9-75.4c0.8,1.9,2.6,3.1,4.8,3.1l65.9,1.2l9.8,29.8
					c0.6,1.9,1.9,3.2,3.6,4c0.9,0.4,1.9,0.6,2.8,0.6c0.8,0,1.6-0.2,2.2-0.4c4-1.4,5.6-4.9,4.2-8.8L401.2,771.8z M322.7,765.7
					l31.4-95.1l31.7,96l-61.4,1c-0.9,0-1.7,0.2-2.4,0.5L322.7,765.7z"/>
				<path class="st1" d="M490.9,647.1h-83.7c-3.5,0-5.9,2.4-5.9,5.9c0,3.5,2.4,5.9,5.9,5.9h37.9l-1.3,148.8c0,1.9,0.7,3.5,2.1,4.9
					c1.3,1.3,3,2.1,4.9,2.1c1.9,0,3.7-0.8,4.9-2.2c1.2-1.3,1.8-3,1.8-4.8l-1.1-148.8h34.4c3.5,0,5.9-2.4,5.9-5.9
					C496.7,649.4,494.4,647.1,490.9,647.1z"/>
				<path class="st1" d="M508.4,647.3c-3.2,0-5.4,2.3-5.4,5.6l-1.3,154.7c0,1.8,0.6,3.4,1.8,4.7c1.3,1.4,3,2.2,4.9,2.2
					c1.9,0,3.5-0.7,4.9-2.1c1.3-1.3,2.1-3,2.1-4.9L514,652.9C514,649.6,511.7,647.3,508.4,647.3z"/>
				<path class="st1" d="M618.4,647.7c-3.1,0-5.2,2.1-5.2,5.2l-0.9,129.9L539.1,650l-0.1-0.2c-1.3-1.9-3.1-2.9-5.2-2.9
					c-3.5,0-5.9,2.4-5.9,6.1l0.4,154.7c0,3.3,2.2,5.6,5.4,5.6c3.3,0,5.6-2.3,5.6-5.6l0.4-131.3l72.9,134.2c1,2.2,3.2,3.6,5.7,3.6
					c4,0,6.5-2.6,6.5-6.5l-1.1-154.7C623.8,649.9,621.6,647.7,618.4,647.7z"/>
				<path class="st1" d="M715.7,802.7c-1.3-1.2-3-1.8-4.7-1.8l-62.7,0.2l-0.4-68.3h27c3.5,0,5.9-2.4,5.9-5.9c0-3.5-2.4-5.9-5.9-5.9
					h-27l-0.4-62.4l57.6-0.2c3.3,0,5.6-2.3,5.6-5.6c0-3.3-2.3-5.6-5.6-5.6l-63.5-0.2c-3.5,0-5.9,2.3-5.9,5.8L635,807.6
					c0,4,2.6,6.5,6.5,6.5l69.4,0.4h0.2c1.9,0,3.7-0.8,4.9-2.2c1.2-1.3,1.8-3,1.8-4.7C717.9,805.7,717.1,804,715.7,802.7z"/>
				<path class="st1" d="M804.3,802.7c-1.3-1.2-3-1.8-4.7-1.8l-62.7,0.2l-0.4-68.3h27c3.5,0,5.9-2.4,5.9-5.9c0-3.5-2.4-5.9-5.9-5.9
					h-27l-0.4-62.4l57.6-0.2c3.3,0,5.6-2.3,5.6-5.6c0-3.3-2.3-5.6-5.6-5.6l-63.5-0.2c-3.5,0-5.9,2.3-5.9,5.8l-0.7,154.7
					c0,4,2.6,6.5,6.5,6.5l69.4,0.4h0.2c1.9,0,3.7-0.8,4.9-2.2c1.2-1.3,1.8-3,1.8-4.7C806.5,805.7,805.7,804,804.3,802.7z"/>
			</g>
		</g>
	</g>
</g>
</svg>
