<svg width="137" height="57" viewBox="0 0 137 57" fill="none" xmlns="http://www.w3.org/2000/svg">
<g clip-path="url(#clip0_8765_103982)">
<path d="M0 16.9142C0 10.9922 4.07236 8.03125 12.2171 8.03125C20.3821 8.03125 24.4647 10.9922 24.4647 16.9142V22.6054H15.9493V16.9131C15.9493 15.0156 14.7154 14.0599 12.2476 14.0458H12.1878C9.74029 14.0458 8.51654 15.0016 8.51654 16.9131V20.7505C8.51654 22.6339 11.1752 24.9411 16.4924 27.672C21.8096 30.3881 24.4682 33.644 24.4682 37.4397V42.7864C24.4682 48.7232 20.3958 51.6916 12.2511 51.6916C4.08606 51.6768 0.00352576 48.7084 0.00352576 42.7864V37.094H8.51889V42.7864C8.51889 44.6986 9.76257 45.6544 12.2499 45.6536C14.7177 45.6536 15.9517 44.6979 15.9517 42.7864V37.9553C15.9517 35.9149 13.293 33.5288 7.97583 30.7971C2.65861 28.0802 0 24.7743 0 20.8794V16.9142Z" fill="#1A987C"/>
<path d="M110.828 8V30.8713C110.828 32.7144 109.593 34.3865 107.597 35.5911C106.384 36.3019 105.067 36.8161 103.693 37.1143V51.7377H95.9016V37.1143C91.7331 36.1605 88.7656 33.7245 88.7656 30.8666V8H96.7133V30.8338C96.7133 31.8649 98.095 32.7015 99.8016 32.7015C101.508 32.7015 102.891 31.8649 102.891 30.8338V8H110.828Z" fill="#1A987C"/>
<path d="M126.26 8C120.326 8 115.516 10.6774 115.516 13.9829V51.7459H123.25V37.1167C124.246 37.2755 125.252 37.3539 126.261 37.351C128.899 37.4049 131.509 36.8029 133.857 35.5993C135.8 34.5177 137.002 33.0214 137.002 31.3681V13.9829C137.002 10.6774 132.192 8 126.26 8ZM129.268 26.6811C129.268 26.6905 129.268 26.6987 129.268 26.7081C129.268 26.7174 129.268 26.7256 129.268 26.735V31.6048C129.268 32.5293 127.919 33.278 126.26 33.278C125.521 33.2941 124.789 33.1257 124.132 32.7882C123.892 32.6878 123.684 32.525 123.529 32.3169C123.373 32.1088 123.277 31.8629 123.249 31.6048V13.8494C123.249 12.9248 124.598 12.1761 126.26 12.1761C126.998 12.1604 127.728 12.3287 128.385 12.6659C128.625 12.7662 128.833 12.929 128.988 13.1371C129.144 13.3453 129.24 13.5912 129.268 13.8494V26.6811Z" fill="#1A987C"/>
<path d="M54.4984 8V13.9396H45.4341V51.7435H37.6424V13.9396H28.5781V8H54.4984Z" fill="#1A987C"/>
<path d="M84.0442 16.4975C83.7521 11.7824 78.3262 8.02344 71.6735 8.02344C65.0207 8.02344 59.5924 11.7824 59.3026 16.4975H59.2886V22.6925L55.8438 21.2395C55.8492 23.4268 55.8551 25.6141 55.8614 27.8013L59.2886 29.2191V42.7047C59.2886 47.6061 64.833 51.5783 71.6735 51.5783C78.5127 51.5783 84.0582 47.6061 84.0582 42.7047V36.9386H75.1441V42.9895C75.1441 44.3616 73.5912 45.4736 71.677 45.4736C69.7616 45.4736 68.2098 44.3616 68.2098 42.9895V35.8231C68.2098 35.809 68.2098 35.7961 68.2098 35.7832C68.2098 35.7703 68.2098 35.7633 68.2098 35.7539C68.2098 35.7446 68.2098 35.7352 68.2098 35.7246C68.2098 35.7141 68.2098 35.6989 68.2098 35.6848V33.2335C69.3504 33.4693 70.5122 33.5871 71.677 33.585V33.585C77.3504 33.585 82.1288 30.8513 83.595 27.1229H83.6079V27.0865C83.9042 26.33 84.0573 25.525 84.0594 24.7126V16.4986L84.0442 16.4975ZM71.6735 27.5377C71.188 27.5389 70.7054 27.4634 70.2436 27.3139L69.4989 26.9998L68.2086 26.3952V17.8286C68.2086 17.8157 68.2086 17.8028 68.2086 17.7888C68.2086 17.7747 68.2086 17.763 68.2086 17.7489V16.7014C68.2086 15.3293 69.7615 14.2161 71.6757 14.2161C73.5911 14.2161 75.1429 15.3281 75.1429 16.7014V17.7477C75.1429 17.7618 75.1429 17.7735 75.1429 17.7876C75.1429 17.8016 75.1429 17.8145 75.1429 17.8274V25.0524C75.1417 26.4268 73.59 27.5377 71.6746 27.5377H71.6735Z" fill="url(#paint0_linear_8765_103982)"/>
</g>
<defs>
<linearGradient id="paint0_linear_8765_103982" x1="59.7375" y1="23.0063" x2="86.0562" y2="29.2919" gradientUnits="userSpaceOnUse">
<stop stop-color="#89C739"/>
<stop offset="0.414" stop-color="#6DBE4D"/>
<stop offset="1" stop-color="#1A987C"/>
</linearGradient>
<clipPath id="clip0_8765_103982">
<rect width="137" height="57" fill="white"/>
</clipPath>
</defs>
</svg>
