<svg width="180" height="110" viewBox="0 0 180 110" fill="none" xmlns="http://www.w3.org/2000/svg">
<rect width="179.236" height="109.002" rx="8" fill="white" fill-opacity="0.97"/>
<path d="M97.5809 32.2158C96.3344 30.9692 95.6343 29.5238 95.4805 27.8794C95.0614 23.4086 98.9078 19.6126 103.374 20.0317C105.034 20.1695 106.585 20.9173 107.727 22.1308C109.084 23.4878 109.796 25.169 109.796 27.1745C109.796 29.1143 109.085 30.7955 107.662 32.2182C106.305 33.5751 104.624 34.2873 102.619 34.2873C100.684 34.2909 99.0027 33.5703 97.5809 32.2158ZM108.829 38.088V73.3504C108.829 73.3649 108.824 73.3788 108.814 73.3891C108.804 73.3994 108.79 73.4054 108.775 73.4057H96.4713C96.4568 73.4054 96.4431 73.3994 96.433 73.3891C96.4229 73.3788 96.4172 73.3649 96.4172 73.3504V38.088C96.4172 38.0809 96.4186 38.0739 96.4213 38.0673C96.4241 38.0608 96.428 38.0548 96.4331 38.0498C96.4381 38.0448 96.444 38.0408 96.4506 38.0381C96.4571 38.0354 96.4642 38.034 96.4713 38.034H108.778C108.792 38.0346 108.805 38.0406 108.814 38.0506C108.824 38.0607 108.829 38.0741 108.829 38.088V38.088Z" fill="#4DBB8F"/>
<path d="M56.3111 62.6629C55.4705 62.921 54.5014 63.0507 53.3378 63.0507C49.9117 63.0507 48.2304 61.3695 48.2304 58.0731V48.5058H56.5057V38.2911H48.2304V36.1788C47.7501 28.9736 42.2261 27.3956 38.8636 27.1074H36.271V38.2911H30V48.5058H35.9479V59.0422C35.9479 68.158 41.4431 73.3938 51.0789 73.3938C52.8536 73.3994 54.619 73.1379 56.3159 72.6181C59.1392 71.5049 65.2096 68.2673 65.2096 68.2673V55.7218C59.3493 61.6145 56.3111 62.6629 56.3111 62.6629Z" fill="#003C3C"/>
<path d="M51.5206 82.6143C52.3532 82.6143 53.0101 82.8368 53.4913 83.2819C53.9724 83.7271 54.2126 84.3371 54.2118 85.1121V88.8132H53.131V87.9725H53.0818C52.6166 88.6586 51.9966 89.0013 51.2216 89.0005C50.6147 89.0199 50.0227 88.8103 49.5632 88.4133C49.3496 88.2336 49.1788 88.0085 49.0633 87.7544C48.9478 87.5003 48.8905 87.2237 48.8955 86.9446C48.886 86.6594 48.9449 86.376 49.0673 86.1181C49.1897 85.8603 49.3721 85.6356 49.5992 85.4627C50.0692 85.0953 50.6956 84.9119 51.4786 84.9127C52.1479 84.9127 52.6987 85.0348 53.131 85.279V85.022C53.1325 84.8318 53.0915 84.6436 53.0111 84.4712C52.9307 84.2988 52.8129 84.1465 52.6663 84.0253C52.3679 83.7561 51.9789 83.6095 51.5771 83.6146C51.2807 83.6078 50.9875 83.6775 50.7258 83.8169C50.4641 83.9564 50.2428 84.1609 50.0832 84.4108L49.0913 83.7863C49.6421 83.0049 50.4519 82.6143 51.5206 82.6143ZM50.064 86.9722C50.0629 87.1157 50.0963 87.2573 50.1613 87.3851C50.2263 87.513 50.321 87.6234 50.4375 87.7072C50.6863 87.9028 50.9952 88.0063 51.3117 88.0002C51.7864 87.9985 52.2413 87.8095 52.5774 87.4742C52.7526 87.3195 52.8929 87.1293 52.989 86.9163C53.085 86.7032 53.1347 86.4722 53.1346 86.2385C52.784 85.9615 52.2944 85.8226 51.666 85.8218C51.259 85.8071 50.8581 85.9228 50.5215 86.152C50.3828 86.2396 50.2682 86.3605 50.1882 86.5038C50.1083 86.6471 50.0656 86.8082 50.064 86.9722V86.9722Z" fill="#4DBB8F"/>
<path d="M110.653 88.0441C110.655 88.1531 110.634 88.2612 110.593 88.3621C110.552 88.463 110.491 88.5545 110.413 88.6313C110.34 88.7241 110.247 88.8003 110.142 88.8549C110.037 88.9095 109.921 88.9413 109.803 88.9481C109.685 88.9549 109.566 88.9367 109.456 88.8945C109.345 88.8524 109.244 88.7873 109.161 88.7036C109.077 88.6198 109.012 88.5193 108.969 88.4087C108.927 88.298 108.909 88.1796 108.915 88.0613C108.922 87.943 108.954 87.8275 109.008 87.7223C109.063 87.6171 109.139 87.5246 109.232 87.4509C109.348 87.3328 109.496 87.2522 109.659 87.2195C109.821 87.1868 109.989 87.2034 110.142 87.2672C110.295 87.331 110.425 87.4392 110.516 87.5776C110.606 87.7161 110.653 87.8786 110.651 88.0441H110.653Z" fill="#4DBB8F"/>
<path d="M33.4393 87.7432C33.362 87.7774 33.2816 87.804 33.1991 87.8224C33.1127 87.8437 33.0239 87.8542 32.9349 87.8537C32.7385 87.8536 32.5497 87.7769 32.409 87.6399C32.2544 87.4966 32.1772 87.2252 32.1772 86.8257V83.8391H33.6483V82.8088H32.1796V81.8013C32.188 81.3005 31.0532 80.9727 31.0532 80.9727V82.8088H30V83.8379H31.0532V87.192C31.0604 87.73 31.2257 88.1499 31.5491 88.4517C31.8779 88.7568 32.3136 88.9203 32.762 88.9068C33.1113 88.9132 33.4591 88.8591 33.79 88.7471L33.4393 87.7432Z" fill="#4DBB8F"/>
<path d="M127.23 81.5319C127.414 81.5313 127.591 81.4671 127.733 81.3502C127.874 81.2333 127.971 81.0709 128.006 80.8908C128.042 80.7106 128.013 80.5238 127.926 80.3621C127.84 80.2005 127.699 80.0739 127.529 80.0041C127.36 79.9342 127.171 79.9253 126.995 79.979C126.82 80.0326 126.668 80.1455 126.567 80.2983C126.465 80.4511 126.419 80.6345 126.438 80.8171C126.456 80.9998 126.537 81.1705 126.667 81.3001C126.74 81.375 126.828 81.4342 126.925 81.4741C127.021 81.5139 127.125 81.5336 127.23 81.5319Z" fill="#4DBB8F"/>
<path d="M127.787 83.6386C127.797 83.1391 126.668 82.8076 126.668 82.8076V88.812H127.794V83.6482L127.787 83.6386Z" fill="#4DBB8F"/>
<path d="M93.0745 80.8696C93.0841 80.3689 91.9481 80.041 91.9481 80.041V82.803L91.9973 83.6364H91.9481C91.7409 83.3157 91.4503 83.0575 91.1074 82.8895C90.7357 82.7 90.3238 82.6032 89.9066 82.6073C89.1236 82.6073 88.4503 82.9175 87.8867 83.538C87.3496 84.1701 87.0547 84.9727 87.0547 85.8022C87.0547 86.6317 87.3496 87.4343 87.8867 88.0664C88.4471 88.6869 89.1204 88.9971 89.9066 88.9971C90.3237 89.0016 90.7356 88.9051 91.1074 88.7161C91.4498 88.5473 91.7402 88.2893 91.9481 87.9692H91.9973V88.8074H93.0781V80.8684L93.0745 80.8696ZM91.4473 87.3663C91.2796 87.5612 91.0706 87.7163 90.8354 87.8201C90.6003 87.924 90.3449 87.9741 90.0879 87.9668C89.8305 87.9706 89.5753 87.9177 89.3406 87.8119C89.1059 87.706 88.8973 87.5498 88.7297 87.3543C88.3623 86.954 88.1785 86.4361 88.1785 85.8004C88.1559 85.2287 88.3531 84.67 88.7297 84.2393C88.8988 84.0468 89.1081 83.8937 89.3427 83.7908C89.5774 83.6879 89.8318 83.6376 90.0879 83.6436C90.3448 83.6367 90.6001 83.687 90.8352 83.7908C91.0703 83.8947 91.2794 84.0495 91.4473 84.2441C91.823 84.6752 92.0198 85.2337 91.9973 85.8052C91.9973 86.4457 91.814 86.966 91.4473 87.3663Z" fill="#4DBB8F"/>
<path d="M148.618 83.2447C148.222 82.8244 147.657 82.6143 146.923 82.6143C146.535 82.6158 146.153 82.7171 145.816 82.9085C145.49 83.0765 145.217 83.3307 145.025 83.6434H144.977V83.5978C144.977 83.1414 143.994 82.8364 143.906 82.81V88.8144H145.031V85.4916C145.021 85.0163 145.182 84.5532 145.485 84.1874C145.618 84.0179 145.789 83.8813 145.983 83.788C146.177 83.6948 146.39 83.6473 146.606 83.6494C147.567 83.6494 148.06 84.139 148.088 85.1181V88.8132H149.213V85.0388C149.212 84.2631 149.014 83.665 148.618 83.2447Z" fill="#4DBB8F"/>
<path d="M70.7847 81.5319C70.9683 81.5313 71.146 81.4671 71.2875 81.3502C71.4291 81.2333 71.5257 81.0709 71.561 80.8908C71.5963 80.7106 71.5681 80.5238 71.4811 80.3621C71.3942 80.2005 71.2539 80.0739 71.0841 80.0041C70.9144 79.9342 70.7256 79.9253 70.5501 79.979C70.3745 80.0326 70.223 80.1455 70.1213 80.2983C70.0196 80.4511 69.974 80.6345 69.9922 80.8171C70.0105 80.9998 70.0915 81.1705 70.2215 81.3001C70.2945 81.3753 70.3822 81.4346 70.479 81.4745C70.5759 81.5143 70.68 81.5339 70.7847 81.5319Z" fill="#4DBB8F"/>
<path d="M70.2305 82.8076V88.812H71.3557V83.6482C71.3593 83.1379 70.2305 82.8076 70.2305 82.8076Z" fill="#4DBB8F"/>
<path d="M78.2926 37.3887C70.3404 37.3887 64.8428 40.1687 61.7434 45.6627L62.3438 46.0314C64.055 47.0269 69.1143 49.5871 73.1985 47.7222C74.4258 47.0817 75.8224 46.7615 77.3883 46.7615C80.298 46.7615 81.9781 48.313 81.9781 50.1876C81.9781 51.6094 81.1374 52.3203 79.5223 52.3203H77.7102C70.3404 52.3203 61.3555 54.8422 61.3555 63.181C61.3555 66.0907 62.3894 68.4829 64.3937 70.4211C66.4616 72.3605 68.9186 73.3308 71.8283 73.3308C76.095 73.3308 79.5847 71.7793 82.2999 68.6114L82.4296 68.6762V73.4004H94.1285V51.6106C94.1285 42.3014 88.0545 37.3887 78.2926 37.3887ZM81.9769 59.9507C81.9769 62.9889 79.8441 64.7986 76.741 64.7986C75.1247 64.7986 73.638 63.5052 73.638 61.8901C73.638 59.8858 75.5774 58.9155 77.7102 58.9155H81.9769V59.9507Z" fill="#4DBB8F"/>
<path d="M147.478 20C138.075 20.4659 137.042 28.537 136.953 31.1057V42.1117H136.695C134.368 39.0735 131.2 37.5219 127.128 37.5219C122.667 37.5219 118.853 39.2032 115.555 42.628C112.323 45.9905 110.707 50.2572 110.707 55.3633C110.707 60.3421 112.259 64.61 115.297 68.1634C118.4 71.6543 122.279 73.4004 126.868 73.4004C130.942 73.4004 134.238 71.784 136.76 68.4876H137.018V73.4112H149.236V20H147.478ZM135.014 60.2773C134.39 60.9358 133.638 61.4603 132.804 61.8187C131.971 62.1772 131.073 62.362 130.165 62.362C129.258 62.362 128.36 62.1772 127.527 61.8187C126.693 61.4603 125.941 60.9358 125.317 60.2773C124.042 58.9595 123.329 57.1976 123.329 55.3639C123.329 53.5302 124.042 51.7683 125.317 50.4505C125.941 49.792 126.693 49.2675 127.527 48.909C128.36 48.5506 129.258 48.3658 130.165 48.3658C131.073 48.3658 131.971 48.5506 132.804 48.909C133.638 49.2675 134.39 49.792 135.014 50.4505C136.289 51.7683 137.002 53.5302 137.002 55.3639C137.002 57.1976 136.289 58.9595 135.014 60.2773Z" fill="#003C3C"/>
</svg>
