<svg width="128" height="73" viewBox="0 0 128 73" fill="none" xmlns="http://www.w3.org/2000/svg">
<g clip-path="url(#clip0_2938_14101)">
<path d="M124.077 2.63184V3.28131C124.117 4.50239 123.912 5.71916 123.475 6.86105C123.038 8.00293 122.378 9.04722 121.532 9.93334C119.884 11.5724 117.46 12.392 114.26 12.392C111.157 12.392 108.805 11.5724 107.204 9.93334C105.537 8.12315 104.649 5.73495 104.732 3.28131V2.63184H111.131V2.70448C111.146 3.48668 111.345 4.25453 111.713 4.94603C112.051 5.52714 112.9 5.84049 114.26 5.88607C115.568 5.88607 116.428 5.59693 116.838 5.01867C117.283 4.3494 117.548 3.57747 117.606 2.77711V2.63184H124.077Z" fill="url(#paint0_linear_2938_14101)"/>
<path d="M49.5736 12.4326L55.0413 6.79241C54.8643 6.59928 54.6855 6.41041 54.4973 6.22155C53.3468 5.11845 51.9903 4.24984 50.5044 3.66466C48.9805 3.05044 47.3513 2.73585 45.707 2.7383V10.6064C46.3272 10.5858 46.9453 10.6886 47.525 10.9088C48.1047 11.1289 48.6343 11.4619 49.0829 11.8883C49.2591 12.0581 49.4231 12.24 49.5736 12.4326V12.4326Z" fill="url(#paint1_linear_2938_14101)"/>
<path d="M49.7964 36.7746C49.4873 37.1532 49.1256 37.4861 48.7221 37.7633C47.2933 38.6787 45.692 39.2951 44.0158 39.575C44.6673 38.1618 45.0011 36.6243 44.9939 35.0697V14.5752C45.014 11.4418 43.8205 8.42088 41.661 6.13883C40.6082 5.03798 39.338 4.16518 37.9302 3.5751C36.4547 2.95221 34.8664 2.63692 33.2635 2.64874C30.3511 2.62755 27.5453 3.73679 25.4427 5.7406C24.3933 4.82949 23.2099 4.08336 21.9336 3.5281C20.6052 2.94184 19.1671 2.64186 17.7138 2.64789C16.1265 2.63421 14.554 2.95062 13.0969 3.57681C11.7052 4.17415 10.45 5.04636 9.40738 6.14054C7.25047 8.4231 6.05925 11.4432 6.08052 14.5752V35.0697C6.00985 37.1027 6.53475 39.1124 7.5914 40.8543C8.61666 42.4308 10.042 43.7104 11.7236 44.564C13.6791 45.5449 15.7768 46.2159 17.9407 46.5527C20.5071 46.9784 23.1055 47.1854 25.7074 47.1714C27.3071 47.1714 28.7286 47.1272 29.9719 47.0389C31.2004 46.9548 32.4192 46.7638 33.6141 46.468C34.6214 46.6452 35.7309 46.7925 36.9427 46.9099C38.1545 47.0272 39.4437 47.0862 40.8102 47.0868C47.2273 47.0868 51.8682 45.8001 54.733 43.2266L49.7964 36.7746ZM16.2072 38.1146C14.7273 37.2611 13.9873 36.2453 13.9873 35.0671V14.5752C13.9963 13.5507 14.3748 12.5633 15.0538 11.7927C15.3678 11.3886 15.7719 11.0624 16.2342 10.84C16.6966 10.6175 17.2045 10.5049 17.7181 10.5109C18.2496 10.5128 18.7745 10.6283 19.2573 10.8495C19.7401 11.0706 20.1695 11.3923 20.5164 11.7927C21.2673 12.5286 21.6991 13.5271 21.7196 14.5752L21.8081 34.2741C21.8165 35.2269 21.9359 36.1755 22.1639 37.101C22.3789 38.0288 22.6471 38.9436 22.9675 39.8408C20.6194 39.7289 18.319 39.1415 16.2072 38.1146V38.1146ZM37.173 34.9783C37.124 35.8159 36.8134 36.6174 36.2844 37.2711C35.9259 37.7162 35.4822 38.0862 34.979 38.3597C34.4759 38.6333 33.9232 38.805 33.3529 38.8649C32.2949 38.6402 31.3238 38.1189 30.5546 37.3625C29.9214 36.762 29.5539 35.9361 29.5327 35.0663V14.6641C29.5304 13.6105 29.9089 12.5911 30.5993 11.7919C30.9139 11.3884 31.3181 11.0627 31.7802 10.8404C32.2424 10.618 32.7501 10.5049 33.2635 10.51C33.7967 10.5005 34.3253 10.6108 34.8097 10.8328C35.294 11.0547 35.7218 11.3826 36.0609 11.7919C36.7635 12.5515 37.1593 13.5424 37.1722 14.5744L37.173 34.9783Z" fill="url(#paint2_linear_2938_14101)"/>
<path d="M110.061 14.9503V35.1234C110.016 35.6621 109.839 36.1816 109.545 36.636C109.251 37.0905 108.848 37.4659 108.374 37.729C106.945 38.644 105.344 39.2598 103.667 39.539C104.318 38.1247 104.651 36.5863 104.642 35.0311V14.5418C104.663 11.4088 103.471 8.38796 101.313 6.10538C100.259 5.00386 98.9883 4.13098 97.5793 3.54165C96.1046 2.92025 94.5175 2.60613 92.916 2.61871C90.0036 2.59752 87.1978 3.70675 85.0952 5.71057C84.0465 4.79961 82.8636 4.05375 81.5878 3.49892C80.2584 2.91219 78.819 2.6122 77.3646 2.61871C75.7765 2.60323 74.2026 2.91819 72.7442 3.54336C71.3532 4.14063 70.0988 5.01287 69.0573 6.10709C66.8993 8.38976 65.7074 11.4106 65.7287 14.5435V35.0328C65.6594 37.0666 66.1858 39.0765 67.2439 40.8183C68.2682 42.3955 69.6938 43.6754 71.376 44.528C73.3323 45.5089 75.431 46.1793 77.5957 46.5149C80.1641 46.9416 82.7645 47.1486 85.3684 47.1336C86.9681 47.1336 88.3896 47.0895 89.6329 47.0012C90.8614 46.9166 92.0801 46.7256 93.2752 46.4303C94.2825 46.6075 95.392 46.7548 96.6038 46.8721C97.8156 46.9895 99.1047 47.0485 100.471 47.049C112.078 47.049 117.882 42.8383 117.883 34.4167V14.9503H110.061ZM75.8528 38.0837C74.3751 37.2291 73.6366 36.2124 73.6372 35.0337V14.5418C73.6459 13.5173 74.024 12.53 74.7029 11.7593C75.0168 11.3551 75.4209 11.029 75.8833 10.8065C76.3456 10.5841 76.8536 10.4714 77.3671 10.4774C77.8987 10.4793 78.4236 10.5948 78.9064 10.8159C79.3892 11.0371 79.8185 11.3588 80.1654 11.7593C80.9163 12.4951 81.3481 13.4937 81.3687 14.5418L81.4546 34.2406C81.4628 35.1932 81.5822 36.1416 81.8104 37.0667C82.0257 37.9944 82.294 38.9091 82.614 39.8065C80.2683 39.6984 77.9701 39.1117 75.8622 38.0828L75.8528 38.0837ZM96.8187 34.9482C96.7699 35.7869 96.4592 36.5896 95.93 37.2445C95.5734 37.689 95.1314 38.0586 94.6297 38.3316C94.128 38.6047 93.5767 38.7757 93.0079 38.8348C91.9498 38.6117 90.9785 38.0908 90.2096 37.3342C89.8953 37.0371 89.6435 36.6807 89.4689 36.2859C89.2944 35.8911 89.2006 35.4657 89.1929 35.0345V14.6289C89.1907 13.5759 89.5692 12.5571 90.2595 11.7584C90.5742 11.355 90.9784 11.0295 91.4405 10.8071C91.9027 10.5847 92.4103 10.4716 92.9237 10.4765C93.4563 10.4677 93.9839 10.5783 94.4675 10.8003C94.9511 11.0222 95.3782 11.3497 95.7169 11.7584C96.4195 12.5181 96.8152 13.5089 96.8281 14.5409L96.8187 34.9482Z" fill="url(#paint3_linear_2938_14101)"/>
<path d="M73.5512 35.0686C73.5113 38.2272 72.3052 41.261 70.1624 43.593C68.0224 45.9186 64.9322 47.0817 60.8917 47.0823C59.0422 47.1154 57.2055 46.7695 55.4962 46.0662C54.0026 45.4431 52.6413 44.5442 51.4844 43.417C50.394 42.3396 49.5447 41.0455 48.992 39.6192C48.4257 38.1687 48.1383 36.6254 48.1446 35.0695V28.267H55.9655V35.0686C55.9644 35.5901 56.0713 36.1063 56.2795 36.585C56.4876 37.0637 56.7927 37.4947 57.1755 37.8511C58.1816 38.726 59.471 39.2114 60.8075 39.2184C61.4717 39.2656 62.1387 39.1805 62.7694 38.9682C63.4002 38.7558 63.9819 38.4205 64.4807 37.9819C64.8801 37.6078 65.1976 37.1559 65.4135 36.6544C65.6294 36.1528 65.739 35.6124 65.7355 35.0669V14.663C65.7301 14.1251 65.6163 13.5938 65.4007 13.1005C65.1852 12.6071 64.8724 12.1618 64.4807 11.7908C63.989 11.3388 63.4094 10.9919 62.7777 10.7715C62.1459 10.551 61.4754 10.4616 60.8075 10.5089C59.4788 10.518 58.1947 10.9866 57.1755 11.8344C56.7848 12.1941 56.4751 12.632 56.2665 13.1192C56.058 13.6064 55.9554 14.1319 55.9655 14.6613V21.4629H48.1446V14.663C48.1383 13.107 48.4257 11.5637 48.992 10.1132C49.545 8.68689 50.3943 7.39253 51.4844 6.31464C52.6419 5.1882 54.0031 4.28937 55.4962 3.66545C57.2064 2.96275 59.0433 2.61663 60.8935 2.6485C64.9339 2.6485 68.0242 3.81158 70.1641 6.13774C72.3067 8.47024 73.5127 11.5042 73.5529 14.663L73.5512 35.0686Z" fill="url(#paint4_linear_2938_14101)"/>
<path d="M8.91777 67.1831C8.55566 66.4806 8.11592 65.4836 7.59854 64.1921C7.08116 62.9005 6.57696 61.4392 6.08594 59.8081C6.2277 59.6409 6.40344 59.5055 6.6016 59.4107C6.81499 59.3045 7.05048 59.2494 7.28914 59.2501C7.56687 59.2389 7.84055 59.3191 8.06779 59.4782C8.30666 59.6864 8.4793 59.9593 8.56454 60.2636C8.95415 61.4247 9.35779 62.5661 9.77548 63.6879C10.1932 64.8097 10.6515 65.9744 11.1506 67.1823H11.2365C11.4525 66.7265 11.6722 66.189 11.8957 65.5697C12.1191 64.9504 12.3392 64.2983 12.5557 63.6135C12.7717 62.9299 12.9723 62.2314 13.1573 61.5181C13.3424 60.8048 13.508 60.1274 13.6541 59.4859C13.798 59.4152 13.9482 59.358 14.1027 59.315C14.2756 59.2693 14.4541 59.2477 14.633 59.2509C14.9183 59.2413 15.1994 59.3211 15.4366 59.4791C15.5453 59.559 15.6319 59.6648 15.6886 59.7869C15.7452 59.9089 15.77 60.0432 15.7606 60.1773C15.7274 60.756 15.6297 61.3292 15.4692 61.8864C15.275 62.655 15.0189 63.5007 14.7009 64.4237C14.3829 65.3466 14.0268 66.2821 13.6326 67.2301C13.2723 68.087 12.8681 68.925 12.4217 69.7408C11.8656 70.7612 11.212 71.7259 10.4699 72.6216C10.2795 72.8939 10.033 73.1229 9.74695 73.2933C9.46085 73.4638 9.1416 73.5718 8.81034 73.6104C8.45823 73.6289 8.11287 73.5092 7.84863 73.2771C7.74259 73.1893 7.65498 73.0816 7.5908 72.9601C7.5579 72.835 7.55492 72.704 7.58208 72.5775C7.60924 72.4511 7.6658 72.3327 7.74722 72.2319C7.84176 72.1106 7.98356 71.932 8.16147 71.7192C8.54477 71.2629 8.68486 71.1543 8.98308 70.7945C9.25638 70.4641 9.51593 70.124 9.76173 69.7742C9.99162 69.4455 10.2009 69.103 10.3883 68.7487C10.1219 68.6646 9.87832 68.5214 9.67578 68.3299C9.35731 67.9949 9.10071 67.6067 8.91777 67.1831V67.1831Z" fill="url(#paint5_linear_2938_14101)"/>
<path d="M32.2543 56.3697C32.2497 56.1947 32.282 56.0207 32.349 55.8588C32.4161 55.6969 32.5164 55.5507 32.6437 55.4297C32.7762 55.3046 32.9324 55.2069 33.1033 55.1425C33.2742 55.0781 33.4562 55.0482 33.6389 55.0545C33.989 55.0545 34.3248 55.1928 34.5723 55.439C34.8199 55.6852 34.959 56.0191 34.959 56.3672C34.959 56.7153 34.8199 57.0492 34.5723 57.2954C34.3248 57.5415 33.989 57.6798 33.6389 57.6798C33.4562 57.6866 33.274 57.6569 33.1031 57.5925C32.9321 57.5281 32.7759 57.4302 32.6437 57.3046C32.5171 57.1842 32.4171 57.0389 32.3501 56.8779C32.283 56.717 32.2504 56.5439 32.2543 56.3697V56.3697Z" fill="url(#paint6_linear_2938_14101)"/>
<path d="M56.0767 59.1634C57.2094 59.1045 58.331 59.4099 59.2755 60.0342C59.6844 60.3591 60.0067 60.7788 60.2141 61.2565C60.4215 61.7343 60.5076 62.2554 60.465 62.774V67.7827C60.4822 68.0564 60.4008 68.3272 60.2355 68.5467C60.0594 68.7474 59.8516 68.9183 59.6202 69.0526C59.164 69.3017 58.6776 69.4918 58.1729 69.6183C57.5012 69.7833 56.8106 69.86 56.1188 69.8465C54.9686 69.912 53.8257 69.627 52.8427 69.0295C52.456 68.7615 52.1447 68.3994 51.9386 67.9779C51.7325 67.5563 51.6384 67.0893 51.6653 66.6213C51.6399 66.2139 51.7095 65.8062 51.8687 65.43C52.0279 65.0537 52.2724 64.7192 52.5831 64.4524C53.3564 63.8932 54.2776 63.5717 55.2328 63.5278L58.2408 63.2261V62.7535C58.2629 62.491 58.218 62.2272 58.1103 61.9865C58.0026 61.7459 57.8355 61.5361 57.6245 61.3768C57.1098 61.0605 56.5098 60.9089 55.9057 60.9426C55.3418 60.9411 54.7808 61.0212 54.2401 61.1802C53.7509 61.3212 53.2738 61.5009 52.8135 61.7178C52.6672 61.6005 52.543 61.4584 52.4465 61.2982C52.3452 61.1334 52.2928 60.9435 52.2952 60.7504C52.2871 60.5361 52.3519 60.3253 52.4791 60.1522C52.6337 59.971 52.8309 59.8307 53.0532 59.7437C53.4912 59.5316 53.9574 59.3831 54.4378 59.3027C54.9788 59.2077 55.5273 59.1611 56.0767 59.1634V59.1634ZM56.1188 68.0861C56.5633 68.0933 57.0068 68.0427 57.4381 67.9357C57.7223 67.8741 57.994 67.7652 58.2416 67.6135V64.8823L55.8851 65.119C55.36 65.1484 54.8491 65.2994 54.3931 65.5599C54.2276 65.673 54.0946 65.8271 54.0075 66.007C53.9204 66.1869 53.8821 66.3863 53.8963 66.5854C53.887 66.8006 53.9314 67.0148 54.0258 67.2087C54.1201 67.4026 54.2614 67.5701 54.4369 67.6964C54.9427 67.9966 55.5299 68.1328 56.1171 68.0861H56.1188Z" fill="url(#paint7_linear_2938_14101)"/>
<path d="M76.7277 68.3883C76.7154 68.0108 76.8507 67.6433 77.1051 67.3628C77.3926 67.1 77.769 66.9541 78.1596 66.9541C78.5502 66.9541 78.9265 67.1 79.2141 67.3628C79.4518 67.6548 79.5815 68.0191 79.5815 68.3947C79.5815 68.7704 79.4518 69.1346 79.2141 69.4266C78.9265 69.6895 78.5502 69.8354 78.1596 69.8354C77.769 69.8354 77.3926 69.6895 77.1051 69.4266C76.8478 69.1428 76.7123 68.7701 76.7277 68.3883V68.3883Z" fill="url(#paint8_linear_2938_14101)"/>
<path d="M99.7482 59.1635C100.881 59.1042 102.003 59.4096 102.948 60.0343C103.356 60.3594 103.678 60.7792 103.886 61.2569C104.093 61.7345 104.18 62.2555 104.137 62.7741V67.7828C104.156 68.0566 104.075 68.328 103.908 68.5468C103.731 68.7472 103.523 68.918 103.292 69.0527C102.837 69.3012 102.353 69.4913 101.85 69.6184C101.178 69.7834 100.487 69.8601 99.7954 69.8466C98.6455 69.9123 97.5028 69.6273 96.5201 69.0296C96.1335 68.7614 95.8222 68.3993 95.6159 67.9778C95.4095 67.5564 95.3149 67.0894 95.341 66.6214C95.3157 66.2139 95.3855 65.8062 95.5448 65.4299C95.7042 65.0537 95.9489 64.7192 96.2597 64.4525C97.0325 63.8935 97.953 63.572 98.9076 63.5278L101.916 63.2262V62.7536C101.938 62.4911 101.893 62.2272 101.785 61.9865C101.678 61.7459 101.51 61.5362 101.299 61.3769C100.784 61.0628 100.184 60.9137 99.5806 60.9496C99.017 60.9481 98.4562 61.0281 97.9158 61.1872C97.4259 61.3279 96.9483 61.5076 96.4875 61.7247C96.3414 61.6069 96.2172 61.4646 96.1205 61.3042C96.0192 61.1394 95.9667 60.9496 95.9692 60.7564C95.9615 60.5421 96.0266 60.3314 96.154 60.1582C96.3084 59.9769 96.5057 59.8365 96.7281 59.7498C97.1654 59.5376 97.6311 59.389 98.1109 59.3088C98.6512 59.2119 99.1991 59.1633 99.7482 59.1635V59.1635ZM99.7903 68.0862C100.235 68.0935 100.678 68.0429 101.109 67.9358C101.394 67.8742 101.665 67.7653 101.913 67.6136V64.8815L99.5565 65.1174C99.0314 65.1468 98.5205 65.2978 98.0645 65.5583C97.899 65.6713 97.7661 65.8255 97.6789 66.0053C97.5918 66.1852 97.5535 66.3847 97.5678 66.5838C97.5584 66.799 97.6028 67.0131 97.6972 67.207C97.7915 67.4009 97.9328 67.5685 98.1083 67.6948C98.6154 67.9978 99.2047 68.1367 99.7946 68.0921L99.7903 68.0862Z" fill="url(#paint9_linear_2938_14101)"/>
<path d="M121.356 56.3688C121.351 56.1938 121.383 56.0196 121.45 55.8577C121.517 55.6957 121.618 55.5496 121.745 55.4288C121.877 55.3035 122.034 55.2057 122.204 55.1412C122.375 55.0768 122.557 55.047 122.74 55.0536C123.09 55.0536 123.426 55.1919 123.673 55.4381C123.921 55.6843 124.06 56.0182 124.06 56.3663C124.06 56.7144 123.921 57.0483 123.673 57.2945C123.426 57.5406 123.09 57.6789 122.74 57.6789C122.557 57.6858 122.375 57.6561 122.204 57.5917C122.033 57.5272 121.877 57.4293 121.745 57.3038C121.618 57.1836 121.518 57.0384 121.451 56.8773C121.384 56.7163 121.352 56.5431 121.356 56.3688V56.3688Z" fill="url(#paint10_linear_2938_14101)"/>
<path d="M33.089 59.3457H33.9038C34.0971 59.3457 34.2825 59.4221 34.4191 59.558C34.5558 59.6939 34.6326 59.8782 34.6326 60.0704V68.8512C34.6326 69.0631 34.5479 69.2663 34.3972 69.4162C34.2465 69.566 34.0421 69.6502 33.829 69.6502H32.3594V60.0789C32.3588 59.9834 32.3773 59.8887 32.4136 59.8003C32.45 59.7119 32.5036 59.6315 32.5713 59.5637C32.6391 59.496 32.7196 59.4422 32.8083 59.4056C32.897 59.3689 32.9921 59.35 33.0882 59.35L33.089 59.3457Z" fill="url(#paint11_linear_2938_14101)"/>
<path d="M122.309 59.3457H123.123C123.317 59.3457 123.502 59.4221 123.639 59.558C123.775 59.6939 123.852 59.8782 123.852 60.0704V68.8512C123.852 69.0631 123.768 69.2663 123.617 69.4162C123.466 69.566 123.262 69.6502 123.049 69.6502H121.578V60.0789C121.578 59.9833 121.596 59.8886 121.632 59.8001C121.669 59.7116 121.723 59.6312 121.79 59.5634C121.858 59.4957 121.939 59.4419 122.028 59.4053C122.116 59.3687 122.212 59.3499 122.308 59.35L122.309 59.3457Z" fill="url(#paint12_linear_2938_14101)"/>
</g>
<defs>
<linearGradient id="paint0_linear_2938_14101" x1="104.727" y1="7.5119" x2="124.082" y2="7.5119" gradientUnits="userSpaceOnUse">
<stop stop-color="#14B797"/>
<stop offset="1" stop-color="#198CB8"/>
</linearGradient>
<linearGradient id="paint1_linear_2938_14101" x1="45.6977" y1="7.58545" x2="55.0413" y2="7.58545" gradientUnits="userSpaceOnUse">
<stop stop-color="#DFD023"/>
<stop offset="1" stop-color="#4AB754"/>
</linearGradient>
<linearGradient id="paint2_linear_2938_14101" x1="6.07422" y1="24.9097" x2="54.733" y2="24.9097" gradientUnits="userSpaceOnUse">
<stop stop-color="#DFD023"/>
<stop offset="1" stop-color="#4AB754"/>
</linearGradient>
<linearGradient id="paint3_linear_2938_14101" x1="65.7227" y1="24.8763" x2="117.883" y2="24.8763" gradientUnits="userSpaceOnUse">
<stop stop-color="#14B797"/>
<stop offset="1" stop-color="#198CB8"/>
</linearGradient>
<linearGradient id="paint4_linear_2938_14101" x1="48.1445" y1="24.8655" x2="73.5529" y2="24.8655" gradientUnits="userSpaceOnUse">
<stop stop-color="#DFD023"/>
<stop offset="1" stop-color="#4AB754"/>
</linearGradient>
<linearGradient id="paint5_linear_2938_14101" x1="6.08594" y1="66.4306" x2="15.7625" y2="66.4306" gradientUnits="userSpaceOnUse">
<stop stop-color="#DFD023"/>
<stop offset="1" stop-color="#4AB754"/>
</linearGradient>
<linearGradient id="paint6_linear_2938_14101" x1="32.2512" y1="56.3672" x2="34.9752" y2="56.3672" gradientUnits="userSpaceOnUse">
<stop stop-color="#DFD023"/>
<stop offset="1" stop-color="#4AB754"/>
</linearGradient>
<linearGradient id="paint7_linear_2938_14101" x1="51.6602" y1="64.506" x2="60.4756" y2="64.506" gradientUnits="userSpaceOnUse">
<stop stop-color="#DFD023"/>
<stop offset="1" stop-color="#4AB754"/>
</linearGradient>
<linearGradient id="paint8_linear_2938_14101" x1="76.7266" y1="68.389" x2="79.5815" y2="68.389" gradientUnits="userSpaceOnUse">
<stop stop-color="#14B797"/>
<stop offset="1" stop-color="#198CB8"/>
</linearGradient>
<linearGradient id="paint9_linear_2938_14101" x1="95.3359" y1="64.5061" x2="104.148" y2="64.5061" gradientUnits="userSpaceOnUse">
<stop stop-color="#14B797"/>
<stop offset="1" stop-color="#198CB8"/>
</linearGradient>
<linearGradient id="paint10_linear_2938_14101" x1="121.355" y1="56.3663" x2="124.081" y2="56.3663" gradientUnits="userSpaceOnUse">
<stop stop-color="#14B797"/>
<stop offset="1" stop-color="#198CB8"/>
</linearGradient>
<linearGradient id="paint11_linear_2938_14101" x1="32.3594" y1="64.498" x2="34.6326" y2="64.498" gradientUnits="userSpaceOnUse">
<stop stop-color="#DFD023"/>
<stop offset="1" stop-color="#4AB754"/>
</linearGradient>
<linearGradient id="paint12_linear_2938_14101" x1="121.578" y1="64.498" x2="123.852" y2="64.498" gradientUnits="userSpaceOnUse">
<stop stop-color="#14B797"/>
<stop offset="1" stop-color="#198CB8"/>
</linearGradient>
<clipPath id="clip0_2938_14101">
<rect width="128" height="73" fill="white"/>
</clipPath>
</defs>
</svg>
